<?xml version="1.0" encoding="iso-8859-1"?>
<!-- Generator: Adobe Illustrator 18.0.0, SVG Export Plug-In . SVG Version: 6.00 Build 0)  -->
<!DOCTYPE svg PUBLIC "-//W3C//DTD SVG 1.1//EN" "http://www.w3.org/Graphics/SVG/1.1/DTD/svg11.dtd">
<svg version="1.1" id="Layer_1" xmlns="http://www.w3.org/2000/svg" xmlns:xlink="http://www.w3.org/1999/xlink" x="0px" y="0px"
	 viewBox="0 0 270 270" style="enable-background:new 0 0 270 270;" xml:space="preserve">
<g id="XMLID_1_">
	<g>
		<path d="M266.74,35.06c0,0,1.52,172.44,0,198c-1.99,33.15-33,34-33,34h-150l59-81h14v67h22v-67h36v-22h-36v-27l-36,49h-15.63
			l0.03-0.06h-0.37l19.97-36.94l-51,5l83-105v12l35.97-57.95c3,0,8.25-0.02,17.03-0.05C263.94,2.94,266.74,35.06,266.74,35.06z
			 M178.74,129.06v-66l-44,71L178.74,129.06z"/>
		<polygon style="fill:#FFFFFF;" points="214.74,164.06 214.74,186.06 178.74,186.06 178.74,253.06 156.74,253.06 156.74,186.06 
			142.74,186.06 178.74,137.06 178.74,164.06 		"/>
		<path style="fill:#FFFFFF;" d="M214.74,3.06l-0.03,0.05c-0.23,0-0.45,0-0.65,0l0.03-0.04C214.48,3.06,214.74,3.06,214.74,3.06z"/>
		<path style="fill:#FFFFFF;" d="M214.71,3.11l-35.97,57.95v-12l0.4-1.06l34.92-44.89C214.26,3.11,214.48,3.11,214.71,3.11z"/>
		<path d="M214.14,3l-0.05,0.07c-1.68,0.01-5.66,0.05-0.03,0.04L179.14,48V13l-133,173h80.63l-0.03,0.06h0.37l-44.62,80.31
			L82.14,267h-44c0,0-35.28-2.14-35-38c0.48-58.96,0.09-155.04,0-195c4.62-26.72,22.73-29.8,34-31H214.14z"/>
		<path style="fill:#FFFFFF;" d="M214.09,3.07l-0.03,0.04C208.43,3.12,212.41,3.08,214.09,3.07z"/>
		<polygon style="fill:#FFFFFF;" points="179.14,13 179.14,48 178.74,49.06 95.74,154.06 146.74,149.06 126.77,186 46.14,186 		"/>
		<polygon style="fill:#FFFFFF;" points="178.74,63.06 178.74,129.06 134.74,134.06 		"/>
		<polygon style="fill:#FFFFFF;" points="142.74,186.06 83.74,267.06 82.49,266.37 127.11,186.06 		"/>
		<polygon style="fill:#FFFFFF;" points="127.14,186 127.11,186.06 126.74,186.06 126.77,186 		"/>
	</g>
	<g>
	</g>
</g>
</svg>
